<mxfile host="app.diagrams.net" modified="2023-09-18T21:20:28.211Z" agent="Mozilla/5.0 (Windows NT 10.0; Win64; x64) AppleWebKit/537.36 (KHTML, like Gecko) Chrome/116.0.0.0 Safari/537.36 Edg/116.0.1938.81" etag="Ub0D6xbmZMUKxjyCC715" version="21.7.5" type="github">
  <diagram name="Страница — 1" id="Q_Mxc9fToZvQJ5Je2SA_">
    <mxGraphModel dx="872" dy="481" grid="1" gridSize="10" guides="1" tooltips="1" connect="1" arrows="1" fold="1" page="1" pageScale="1" pageWidth="827" pageHeight="1169" math="0" shadow="0">
      <root>
        <mxCell id="0" />
        <mxCell id="1" parent="0" />
        <mxCell id="_HKDWuqcOFDPoWPhOU8n-1" value="пользователь" style="shape=umlActor;verticalLabelPosition=bottom;verticalAlign=top;html=1;outlineConnect=0;labelBackgroundColor=none;" vertex="1" parent="1">
          <mxGeometry x="850" y="260" width="30" height="60" as="geometry" />
        </mxCell>
        <mxCell id="_HKDWuqcOFDPoWPhOU8n-2" value="вход" style="ellipse;whiteSpace=wrap;html=1;labelBackgroundColor=none;" vertex="1" parent="1">
          <mxGeometry x="544" y="250" width="120" height="80" as="geometry" />
        </mxCell>
        <mxCell id="_HKDWuqcOFDPoWPhOU8n-3" value="регистрация" style="ellipse;whiteSpace=wrap;html=1;labelBackgroundColor=none;" vertex="1" parent="1">
          <mxGeometry x="700" y="385" width="120" height="80" as="geometry" />
        </mxCell>
        <mxCell id="_HKDWuqcOFDPoWPhOU8n-4" value="Просматривайте мои заказы" style="ellipse;whiteSpace=wrap;html=1;labelBackgroundColor=none;" vertex="1" parent="1">
          <mxGeometry x="1330" y="245" width="120" height="80" as="geometry" />
        </mxCell>
        <mxCell id="_HKDWuqcOFDPoWPhOU8n-5" value="Запуск приложения" style="ellipse;whiteSpace=wrap;html=1;labelBackgroundColor=none;" vertex="1" parent="1">
          <mxGeometry x="900" y="170" width="120" height="80" as="geometry" />
        </mxCell>
        <mxCell id="_HKDWuqcOFDPoWPhOU8n-6" value="удаление профиля" style="ellipse;whiteSpace=wrap;html=1;labelBackgroundColor=none;" vertex="1" parent="1">
          <mxGeometry x="664" y="495" width="120" height="80" as="geometry" />
        </mxCell>
        <mxCell id="_HKDWuqcOFDPoWPhOU8n-7" value="Номер телефона для подтверждения" style="ellipse;whiteSpace=wrap;html=1;labelBackgroundColor=none;" vertex="1" parent="1">
          <mxGeometry x="544" y="385" width="120" height="80" as="geometry" />
        </mxCell>
        <mxCell id="_HKDWuqcOFDPoWPhOU8n-8" value="Просмотр каталога продукции" style="ellipse;whiteSpace=wrap;html=1;labelBackgroundColor=none;" vertex="1" parent="1">
          <mxGeometry x="980" y="250" width="120" height="80" as="geometry" />
        </mxCell>
        <mxCell id="_HKDWuqcOFDPoWPhOU8n-9" value="авторизованый&amp;nbsp;&lt;br&gt;пользователь" style="shape=umlActor;verticalLabelPosition=bottom;verticalAlign=top;html=1;labelBackgroundColor=none;" vertex="1" parent="1">
          <mxGeometry x="850" y="500" width="30" height="70" as="geometry" />
        </mxCell>
        <mxCell id="_HKDWuqcOFDPoWPhOU8n-10" value="&amp;lt;&amp;lt;include&amp;gt;&amp;gt;" style="html=1;verticalAlign=bottom;endArrow=open;dashed=1;endSize=8;curved=0;rounded=0;exitX=0;exitY=0.5;exitDx=0;exitDy=0;entryX=1;entryY=0.5;entryDx=0;entryDy=0;labelBackgroundColor=none;fontColor=default;" edge="1" parent="1" source="_HKDWuqcOFDPoWPhOU8n-3" target="_HKDWuqcOFDPoWPhOU8n-7">
          <mxGeometry relative="1" as="geometry">
            <mxPoint x="520" y="435" as="sourcePoint" />
            <mxPoint x="480" y="435" as="targetPoint" />
          </mxGeometry>
        </mxCell>
        <mxCell id="_HKDWuqcOFDPoWPhOU8n-11" value="&amp;lt;&amp;lt;include&amp;gt;&amp;gt;" style="html=1;verticalAlign=bottom;endArrow=open;dashed=1;endSize=8;curved=0;rounded=0;exitX=0.5;exitY=1;exitDx=0;exitDy=0;entryX=0.5;entryY=0;entryDx=0;entryDy=0;labelBackgroundColor=none;fontColor=default;" edge="1" parent="1" source="_HKDWuqcOFDPoWPhOU8n-2" target="_HKDWuqcOFDPoWPhOU8n-7">
          <mxGeometry relative="1" as="geometry">
            <mxPoint x="600" y="355" as="sourcePoint" />
            <mxPoint x="480" y="345" as="targetPoint" />
          </mxGeometry>
        </mxCell>
        <mxCell id="_HKDWuqcOFDPoWPhOU8n-12" value="Сделайте заказ" style="ellipse;whiteSpace=wrap;html=1;labelBackgroundColor=none;" vertex="1" parent="1">
          <mxGeometry x="1450" y="335" width="140" height="70" as="geometry" />
        </mxCell>
        <mxCell id="_HKDWuqcOFDPoWPhOU8n-13" value="Добавить продукт" style="ellipse;whiteSpace=wrap;html=1;labelBackgroundColor=none;" vertex="1" parent="1">
          <mxGeometry x="1770" y="335" width="140" height="70" as="geometry" />
        </mxCell>
        <mxCell id="_HKDWuqcOFDPoWPhOU8n-14" value="Извлеките продукт" style="ellipse;whiteSpace=wrap;html=1;labelBackgroundColor=none;" vertex="1" parent="1">
          <mxGeometry x="1770" y="417.5" width="140" height="70" as="geometry" />
        </mxCell>
        <mxCell id="_HKDWuqcOFDPoWPhOU8n-15" value="&amp;lt;&amp;lt;include&amp;gt;&amp;gt;" style="html=1;verticalAlign=bottom;endArrow=open;dashed=1;endSize=8;curved=0;rounded=0;exitX=1;exitY=0.5;exitDx=0;exitDy=0;entryX=0;entryY=0.5;entryDx=0;entryDy=0;labelBackgroundColor=none;fontColor=default;" edge="1" parent="1" source="_HKDWuqcOFDPoWPhOU8n-12" target="_HKDWuqcOFDPoWPhOU8n-13">
          <mxGeometry relative="1" as="geometry">
            <mxPoint x="1350" y="430" as="sourcePoint" />
            <mxPoint x="677" y="420" as="targetPoint" />
          </mxGeometry>
        </mxCell>
        <mxCell id="_HKDWuqcOFDPoWPhOU8n-16" value="&amp;lt;&amp;lt;include&amp;gt;&amp;gt;" style="html=1;verticalAlign=bottom;endArrow=open;dashed=1;endSize=8;curved=0;rounded=0;exitX=1;exitY=0.5;exitDx=0;exitDy=0;entryX=0;entryY=0.5;entryDx=0;entryDy=0;labelBackgroundColor=none;fontColor=default;" edge="1" parent="1" source="_HKDWuqcOFDPoWPhOU8n-12" target="_HKDWuqcOFDPoWPhOU8n-14">
          <mxGeometry relative="1" as="geometry">
            <mxPoint x="1350" y="430" as="sourcePoint" />
            <mxPoint x="1290" y="410" as="targetPoint" />
          </mxGeometry>
        </mxCell>
        <mxCell id="_HKDWuqcOFDPoWPhOU8n-17" value="&amp;lt;&amp;lt;include&amp;gt;&amp;gt;" style="html=1;verticalAlign=bottom;endArrow=open;dashed=1;endSize=8;curved=0;rounded=0;exitX=0.208;exitY=0.088;exitDx=0;exitDy=0;entryX=1;entryY=1;entryDx=0;entryDy=0;exitPerimeter=0;labelBackgroundColor=none;fontColor=default;" edge="1" parent="1" source="_HKDWuqcOFDPoWPhOU8n-6" target="_HKDWuqcOFDPoWPhOU8n-7">
          <mxGeometry relative="1" as="geometry">
            <mxPoint x="663.5" y="530" as="sourcePoint" />
            <mxPoint x="610.5" y="615" as="targetPoint" />
          </mxGeometry>
        </mxCell>
        <mxCell id="_HKDWuqcOFDPoWPhOU8n-18" value="Заполнение профиля" style="ellipse;whiteSpace=wrap;html=1;labelBackgroundColor=none;" vertex="1" parent="1">
          <mxGeometry x="460" y="605" width="140" height="70" as="geometry" />
        </mxCell>
        <mxCell id="_HKDWuqcOFDPoWPhOU8n-19" value="&amp;lt;&amp;lt;include&amp;gt;&amp;gt;" style="html=1;verticalAlign=bottom;endArrow=open;dashed=1;endSize=8;curved=0;rounded=0;exitX=0.5;exitY=1;exitDx=0;exitDy=0;entryX=0.5;entryY=0;entryDx=0;entryDy=0;labelBackgroundColor=none;fontColor=default;" edge="1" parent="1" source="_HKDWuqcOFDPoWPhOU8n-55" target="_HKDWuqcOFDPoWPhOU8n-18">
          <mxGeometry relative="1" as="geometry">
            <mxPoint x="673.5" y="540" as="sourcePoint" />
            <mxPoint x="542" y="553" as="targetPoint" />
          </mxGeometry>
        </mxCell>
        <mxCell id="_HKDWuqcOFDPoWPhOU8n-20" value="Выберите тип оплаты" style="ellipse;whiteSpace=wrap;html=1;labelBackgroundColor=none;" vertex="1" parent="1">
          <mxGeometry x="1770" y="255" width="140" height="70" as="geometry" />
        </mxCell>
        <mxCell id="_HKDWuqcOFDPoWPhOU8n-21" value="&amp;lt;&amp;lt;include&amp;gt;&amp;gt;" style="html=1;verticalAlign=bottom;endArrow=open;dashed=1;endSize=8;curved=0;rounded=0;entryX=0;entryY=0.5;entryDx=0;entryDy=0;exitX=1;exitY=0.5;exitDx=0;exitDy=0;labelBackgroundColor=none;fontColor=default;" edge="1" parent="1" source="_HKDWuqcOFDPoWPhOU8n-12" target="_HKDWuqcOFDPoWPhOU8n-20">
          <mxGeometry relative="1" as="geometry">
            <mxPoint x="1280" y="435" as="sourcePoint" />
            <mxPoint x="1350" y="430" as="targetPoint" />
          </mxGeometry>
        </mxCell>
        <mxCell id="_HKDWuqcOFDPoWPhOU8n-22" value="Работаю с моими заказами" style="ellipse;whiteSpace=wrap;html=1;labelBackgroundColor=none;" vertex="1" parent="1">
          <mxGeometry x="890" y="425" width="140" height="70" as="geometry" />
        </mxCell>
        <mxCell id="_HKDWuqcOFDPoWPhOU8n-23" value="&amp;lt;&amp;lt;include&amp;gt;&amp;gt;" style="html=1;verticalAlign=bottom;endArrow=open;dashed=1;endSize=8;curved=0;rounded=0;exitX=1;exitY=0.5;exitDx=0;exitDy=0;entryX=0;entryY=0.5;entryDx=0;entryDy=0;labelBackgroundColor=none;fontColor=default;" edge="1" parent="1" source="_HKDWuqcOFDPoWPhOU8n-22" target="_HKDWuqcOFDPoWPhOU8n-12">
          <mxGeometry relative="1" as="geometry">
            <mxPoint x="1250" y="440" as="sourcePoint" />
            <mxPoint x="1130" y="435" as="targetPoint" />
          </mxGeometry>
        </mxCell>
        <mxCell id="_HKDWuqcOFDPoWPhOU8n-24" value="Забрать заказ" style="ellipse;whiteSpace=wrap;html=1;labelBackgroundColor=none;" vertex="1" parent="1">
          <mxGeometry x="1370" y="425" width="140" height="75" as="geometry" />
        </mxCell>
        <mxCell id="_HKDWuqcOFDPoWPhOU8n-25" value="&amp;lt;&amp;lt;include&amp;gt;&amp;gt;" style="html=1;verticalAlign=bottom;endArrow=open;dashed=1;endSize=8;curved=0;rounded=0;exitX=1;exitY=0.5;exitDx=0;exitDy=0;entryX=0;entryY=0.5;entryDx=0;entryDy=0;labelBackgroundColor=none;fontColor=default;" edge="1" parent="1" source="_HKDWuqcOFDPoWPhOU8n-22" target="_HKDWuqcOFDPoWPhOU8n-24">
          <mxGeometry relative="1" as="geometry">
            <mxPoint x="1290" y="440" as="sourcePoint" />
            <mxPoint x="1350" y="540" as="targetPoint" />
          </mxGeometry>
        </mxCell>
        <mxCell id="_HKDWuqcOFDPoWPhOU8n-26" value="Связь с технической поддержкой" style="ellipse;whiteSpace=wrap;html=1;labelBackgroundColor=none;" vertex="1" parent="1">
          <mxGeometry x="1000" y="535" width="140" height="70" as="geometry" />
        </mxCell>
        <mxCell id="_HKDWuqcOFDPoWPhOU8n-27" value="менеджер" style="shape=umlActor;verticalLabelPosition=bottom;verticalAlign=top;html=1;labelBackgroundColor=none;" vertex="1" parent="1">
          <mxGeometry x="850" y="719" width="30" height="60" as="geometry" />
        </mxCell>
        <mxCell id="_HKDWuqcOFDPoWPhOU8n-28" value="Отправить заказ" style="ellipse;whiteSpace=wrap;html=1;labelBackgroundColor=none;" vertex="1" parent="1">
          <mxGeometry x="980" y="625" width="140" height="70" as="geometry" />
        </mxCell>
        <mxCell id="_HKDWuqcOFDPoWPhOU8n-29" value="Отправить сообщение" style="ellipse;whiteSpace=wrap;html=1;labelBackgroundColor=none;" vertex="1" parent="1">
          <mxGeometry x="1220" y="475" width="140" height="70" as="geometry" />
        </mxCell>
        <mxCell id="_HKDWuqcOFDPoWPhOU8n-30" value="&amp;lt;&amp;lt;include&amp;gt;&amp;gt;" style="html=1;verticalAlign=bottom;endArrow=open;dashed=1;endSize=8;curved=0;rounded=0;exitX=1;exitY=0.5;exitDx=0;exitDy=0;entryX=0;entryY=0.5;entryDx=0;entryDy=0;labelBackgroundColor=none;fontColor=default;" edge="1" parent="1" source="_HKDWuqcOFDPoWPhOU8n-26" target="_HKDWuqcOFDPoWPhOU8n-29">
          <mxGeometry relative="1" as="geometry">
            <mxPoint x="1100" y="445" as="sourcePoint" />
            <mxPoint x="1140" y="380" as="targetPoint" />
          </mxGeometry>
        </mxCell>
        <mxCell id="_HKDWuqcOFDPoWPhOU8n-31" value="Удалить сообщение" style="ellipse;whiteSpace=wrap;html=1;labelBackgroundColor=none;" vertex="1" parent="1">
          <mxGeometry x="1220" y="595" width="140" height="70" as="geometry" />
        </mxCell>
        <mxCell id="_HKDWuqcOFDPoWPhOU8n-32" value="&amp;lt;&amp;lt;include&amp;gt;&amp;gt;" style="html=1;verticalAlign=bottom;endArrow=open;dashed=1;endSize=8;curved=0;rounded=0;exitX=1;exitY=0.5;exitDx=0;exitDy=0;entryX=0;entryY=0.5;entryDx=0;entryDy=0;labelBackgroundColor=none;fontColor=default;" edge="1" parent="1" source="_HKDWuqcOFDPoWPhOU8n-26" target="_HKDWuqcOFDPoWPhOU8n-31">
          <mxGeometry relative="1" as="geometry">
            <mxPoint x="1100" y="640" as="sourcePoint" />
            <mxPoint x="1140" y="590" as="targetPoint" />
          </mxGeometry>
        </mxCell>
        <mxCell id="_HKDWuqcOFDPoWPhOU8n-33" value="Общение с покупателем" style="ellipse;whiteSpace=wrap;html=1;labelBackgroundColor=none;" vertex="1" parent="1">
          <mxGeometry x="644" y="714" width="140" height="70" as="geometry" />
        </mxCell>
        <mxCell id="_HKDWuqcOFDPoWPhOU8n-34" value="Отправить сообщение" style="ellipse;whiteSpace=wrap;html=1;labelBackgroundColor=none;" vertex="1" parent="1">
          <mxGeometry x="460" y="685" width="140" height="70" as="geometry" />
        </mxCell>
        <mxCell id="_HKDWuqcOFDPoWPhOU8n-35" value="&amp;lt;&amp;lt;include&amp;gt;&amp;gt;" style="html=1;verticalAlign=bottom;endArrow=open;dashed=1;endSize=8;curved=0;rounded=0;exitX=0;exitY=0.5;exitDx=0;exitDy=0;entryX=1;entryY=0.5;entryDx=0;entryDy=0;labelBackgroundColor=none;fontColor=default;" edge="1" parent="1" source="_HKDWuqcOFDPoWPhOU8n-33" target="_HKDWuqcOFDPoWPhOU8n-34">
          <mxGeometry relative="1" as="geometry">
            <mxPoint x="440" y="740" as="sourcePoint" />
            <mxPoint x="490" y="490" as="targetPoint" />
          </mxGeometry>
        </mxCell>
        <mxCell id="_HKDWuqcOFDPoWPhOU8n-36" value="администратор" style="shape=umlActor;verticalLabelPosition=bottom;verticalAlign=top;html=1;labelBackgroundColor=none;" vertex="1" parent="1">
          <mxGeometry x="850" y="895" width="30" height="60" as="geometry" />
        </mxCell>
        <mxCell id="_HKDWuqcOFDPoWPhOU8n-37" value="история заказов" style="ellipse;whiteSpace=wrap;html=1;labelBackgroundColor=none;" vertex="1" parent="1">
          <mxGeometry x="970" y="820" width="140" height="70" as="geometry" />
        </mxCell>
        <mxCell id="_HKDWuqcOFDPoWPhOU8n-38" value="Работа с сотрудниками" style="ellipse;whiteSpace=wrap;html=1;labelBackgroundColor=none;" vertex="1" parent="1">
          <mxGeometry x="653.5" y="890" width="140" height="70" as="geometry" />
        </mxCell>
        <mxCell id="_HKDWuqcOFDPoWPhOU8n-39" value="Добавить сотрудника" style="ellipse;whiteSpace=wrap;html=1;labelBackgroundColor=none;" vertex="1" parent="1">
          <mxGeometry x="460" y="890" width="140" height="70" as="geometry" />
        </mxCell>
        <mxCell id="_HKDWuqcOFDPoWPhOU8n-40" value="Уволить сотрудника" style="ellipse;whiteSpace=wrap;html=1;labelBackgroundColor=none;" vertex="1" parent="1">
          <mxGeometry x="654" y="1045" width="140" height="70" as="geometry" />
        </mxCell>
        <mxCell id="_HKDWuqcOFDPoWPhOU8n-41" value="&amp;lt;&amp;lt;include&amp;gt;&amp;gt;" style="html=1;verticalAlign=bottom;endArrow=open;dashed=1;endSize=8;curved=0;rounded=0;exitX=0;exitY=0.5;exitDx=0;exitDy=0;entryX=1;entryY=0.5;entryDx=0;entryDy=0;labelBackgroundColor=none;fontColor=default;" edge="1" parent="1" source="_HKDWuqcOFDPoWPhOU8n-38" target="_HKDWuqcOFDPoWPhOU8n-39">
          <mxGeometry relative="1" as="geometry">
            <mxPoint x="680.0000000000016" y="850" as="sourcePoint" />
            <mxPoint x="610" y="800" as="targetPoint" />
          </mxGeometry>
        </mxCell>
        <mxCell id="_HKDWuqcOFDPoWPhOU8n-42" value="&amp;lt;&amp;lt;include&amp;gt;&amp;gt;" style="html=1;verticalAlign=bottom;endArrow=open;dashed=1;endSize=8;curved=0;rounded=0;exitX=0.5;exitY=1;exitDx=0;exitDy=0;entryX=0.5;entryY=0;entryDx=0;entryDy=0;labelBackgroundColor=none;fontColor=default;" edge="1" parent="1" source="_HKDWuqcOFDPoWPhOU8n-38" target="_HKDWuqcOFDPoWPhOU8n-40">
          <mxGeometry relative="1" as="geometry">
            <mxPoint x="664" y="769" as="sourcePoint" />
            <mxPoint x="620" y="810" as="targetPoint" />
          </mxGeometry>
        </mxCell>
        <mxCell id="_HKDWuqcOFDPoWPhOU8n-43" value="Просмотреть всех сотрудников" style="ellipse;whiteSpace=wrap;html=1;labelBackgroundColor=none;" vertex="1" parent="1">
          <mxGeometry x="500" y="995" width="140" height="70" as="geometry" />
        </mxCell>
        <mxCell id="_HKDWuqcOFDPoWPhOU8n-44" value="&amp;lt;&amp;lt;include&amp;gt;&amp;gt;" style="html=1;verticalAlign=bottom;endArrow=open;dashed=1;endSize=8;curved=0;rounded=0;exitX=0;exitY=1;exitDx=0;exitDy=0;entryX=1;entryY=0;entryDx=0;entryDy=0;labelBackgroundColor=none;fontColor=default;" edge="1" parent="1" source="_HKDWuqcOFDPoWPhOU8n-38" target="_HKDWuqcOFDPoWPhOU8n-43">
          <mxGeometry relative="1" as="geometry">
            <mxPoint x="674" y="779" as="sourcePoint" />
            <mxPoint x="630" y="820" as="targetPoint" />
          </mxGeometry>
        </mxCell>
        <mxCell id="_HKDWuqcOFDPoWPhOU8n-45" value="Удалить заказ" style="ellipse;whiteSpace=wrap;html=1;labelBackgroundColor=none;" vertex="1" parent="1">
          <mxGeometry x="1320" y="755" width="140" height="70" as="geometry" />
        </mxCell>
        <mxCell id="_HKDWuqcOFDPoWPhOU8n-46" value="Работа с заказами" style="ellipse;whiteSpace=wrap;html=1;labelBackgroundColor=none;" vertex="1" parent="1">
          <mxGeometry x="1050" y="715" width="140" height="70" as="geometry" />
        </mxCell>
        <mxCell id="_HKDWuqcOFDPoWPhOU8n-47" value="&amp;lt;&amp;lt;include&amp;gt;&amp;gt;" style="html=1;verticalAlign=bottom;endArrow=open;dashed=1;endSize=8;curved=0;rounded=0;exitX=1;exitY=0.5;exitDx=0;exitDy=0;entryX=0;entryY=0.5;entryDx=0;entryDy=0;labelBackgroundColor=none;fontColor=default;" edge="1" parent="1" source="_HKDWuqcOFDPoWPhOU8n-46" target="_HKDWuqcOFDPoWPhOU8n-45">
          <mxGeometry relative="1" as="geometry">
            <mxPoint x="684" y="789" as="sourcePoint" />
            <mxPoint x="640" y="830" as="targetPoint" />
          </mxGeometry>
        </mxCell>
        <mxCell id="_HKDWuqcOFDPoWPhOU8n-48" value="&amp;lt;&amp;lt;include&amp;gt;&amp;gt;" style="html=1;verticalAlign=bottom;endArrow=open;dashed=1;endSize=8;curved=0;rounded=0;exitX=1;exitY=0.5;exitDx=0;exitDy=0;entryX=0;entryY=0.5;entryDx=0;entryDy=0;labelBackgroundColor=none;fontColor=default;" edge="1" parent="1" source="_HKDWuqcOFDPoWPhOU8n-22" target="_HKDWuqcOFDPoWPhOU8n-4">
          <mxGeometry relative="1" as="geometry">
            <mxPoint x="1100" y="445" as="sourcePoint" />
            <mxPoint x="1140" y="380" as="targetPoint" />
          </mxGeometry>
        </mxCell>
        <mxCell id="_HKDWuqcOFDPoWPhOU8n-49" value="Изменить порядок" style="ellipse;whiteSpace=wrap;html=1;labelBackgroundColor=none;" vertex="1" parent="1">
          <mxGeometry x="1320" y="680" width="140" height="70" as="geometry" />
        </mxCell>
        <mxCell id="_HKDWuqcOFDPoWPhOU8n-50" value="Редактировать сообщение" style="ellipse;whiteSpace=wrap;html=1;labelBackgroundColor=none;" vertex="1" parent="1">
          <mxGeometry x="460" y="765" width="140" height="70" as="geometry" />
        </mxCell>
        <mxCell id="_HKDWuqcOFDPoWPhOU8n-51" value="&amp;lt;&amp;lt;include&amp;gt;&amp;gt;" style="html=1;verticalAlign=bottom;endArrow=open;dashed=1;endSize=8;curved=0;rounded=0;exitX=0;exitY=0.5;exitDx=0;exitDy=0;entryX=1;entryY=0.5;entryDx=0;entryDy=0;labelBackgroundColor=none;fontColor=default;" edge="1" parent="1" source="_HKDWuqcOFDPoWPhOU8n-33" target="_HKDWuqcOFDPoWPhOU8n-50">
          <mxGeometry relative="1" as="geometry">
            <mxPoint x="654" y="759" as="sourcePoint" />
            <mxPoint x="620" y="660" as="targetPoint" />
          </mxGeometry>
        </mxCell>
        <mxCell id="_HKDWuqcOFDPoWPhOU8n-52" value="&amp;lt;&amp;lt;include&amp;gt;&amp;gt;" style="html=1;verticalAlign=bottom;endArrow=open;dashed=1;endSize=8;curved=0;rounded=0;exitX=1;exitY=0.5;exitDx=0;exitDy=0;entryX=0;entryY=0.5;entryDx=0;entryDy=0;labelBackgroundColor=none;fontColor=default;" edge="1" parent="1" source="_HKDWuqcOFDPoWPhOU8n-46" target="_HKDWuqcOFDPoWPhOU8n-49">
          <mxGeometry relative="1" as="geometry">
            <mxPoint x="1180" y="759" as="sourcePoint" />
            <mxPoint x="1200" y="880" as="targetPoint" />
          </mxGeometry>
        </mxCell>
        <mxCell id="_HKDWuqcOFDPoWPhOU8n-53" value="Редактировать сообщение" style="ellipse;whiteSpace=wrap;html=1;labelBackgroundColor=none;" vertex="1" parent="1">
          <mxGeometry x="1340" y="535" width="140" height="70" as="geometry" />
        </mxCell>
        <mxCell id="_HKDWuqcOFDPoWPhOU8n-54" value="&amp;lt;&amp;lt;include&amp;gt;&amp;gt;" style="html=1;verticalAlign=bottom;endArrow=open;dashed=1;endSize=8;curved=0;rounded=0;exitX=1;exitY=0.5;exitDx=0;exitDy=0;entryX=0;entryY=0.5;entryDx=0;entryDy=0;labelBackgroundColor=none;fontColor=default;" edge="1" parent="1" source="_HKDWuqcOFDPoWPhOU8n-26" target="_HKDWuqcOFDPoWPhOU8n-53">
          <mxGeometry relative="1" as="geometry">
            <mxPoint x="1100" y="590" as="sourcePoint" />
            <mxPoint x="1430" y="520" as="targetPoint" />
          </mxGeometry>
        </mxCell>
        <mxCell id="_HKDWuqcOFDPoWPhOU8n-55" value="редактирование профиля" style="ellipse;whiteSpace=wrap;html=1;direction=east;labelBackgroundColor=none;" vertex="1" parent="1">
          <mxGeometry x="470" y="495" width="120" height="80" as="geometry" />
        </mxCell>
        <mxCell id="_HKDWuqcOFDPoWPhOU8n-56" value="" style="endArrow=none;html=1;rounded=0;exitX=1;exitY=0.5;exitDx=0;exitDy=0;entryX=0.5;entryY=0.5;entryDx=0;entryDy=0;entryPerimeter=0;labelBackgroundColor=none;fontColor=default;" edge="1" parent="1" source="_HKDWuqcOFDPoWPhOU8n-6" target="_HKDWuqcOFDPoWPhOU8n-9">
          <mxGeometry width="50" height="50" relative="1" as="geometry">
            <mxPoint x="1050" y="565" as="sourcePoint" />
            <mxPoint x="860" y="530" as="targetPoint" />
          </mxGeometry>
        </mxCell>
        <mxCell id="_HKDWuqcOFDPoWPhOU8n-57" value="Просмотреть все профили" style="ellipse;whiteSpace=wrap;html=1;labelBackgroundColor=none;" vertex="1" parent="1">
          <mxGeometry x="1170" y="855" width="140" height="70" as="geometry" />
        </mxCell>
        <mxCell id="_HKDWuqcOFDPoWPhOU8n-58" value="Работа с профилем" style="ellipse;whiteSpace=wrap;html=1;labelBackgroundColor=none;" vertex="1" parent="1">
          <mxGeometry x="910" y="975" width="140" height="70" as="geometry" />
        </mxCell>
        <mxCell id="_HKDWuqcOFDPoWPhOU8n-59" value="Удалить профиль" style="ellipse;whiteSpace=wrap;html=1;labelBackgroundColor=none;" vertex="1" parent="1">
          <mxGeometry x="1170" y="935" width="140" height="70" as="geometry" />
        </mxCell>
        <mxCell id="_HKDWuqcOFDPoWPhOU8n-60" value="Редактировать профиль" style="ellipse;whiteSpace=wrap;html=1;labelBackgroundColor=none;" vertex="1" parent="1">
          <mxGeometry x="1170" y="1015" width="140" height="70" as="geometry" />
        </mxCell>
        <mxCell id="_HKDWuqcOFDPoWPhOU8n-61" value="&amp;lt;&amp;lt;include&amp;gt;&amp;gt;" style="html=1;verticalAlign=bottom;endArrow=open;dashed=1;endSize=8;curved=0;rounded=0;exitX=0.5;exitY=0;exitDx=0;exitDy=0;entryX=0;entryY=1;entryDx=0;entryDy=0;labelBackgroundColor=none;fontColor=default;" edge="1" parent="1" source="_HKDWuqcOFDPoWPhOU8n-55" target="_HKDWuqcOFDPoWPhOU8n-7">
          <mxGeometry relative="1" as="geometry">
            <mxPoint x="674" y="540" as="sourcePoint" />
            <mxPoint x="610" y="565" as="targetPoint" />
          </mxGeometry>
        </mxCell>
        <mxCell id="_HKDWuqcOFDPoWPhOU8n-62" value="&amp;lt;&amp;lt;include&amp;gt;&amp;gt;" style="html=1;verticalAlign=bottom;endArrow=open;dashed=1;endSize=8;curved=0;rounded=0;exitX=1;exitY=1;exitDx=0;exitDy=0;entryX=0;entryY=0.5;entryDx=0;entryDy=0;labelBackgroundColor=none;fontColor=default;" edge="1" parent="1" source="_HKDWuqcOFDPoWPhOU8n-58" target="_HKDWuqcOFDPoWPhOU8n-60">
          <mxGeometry relative="1" as="geometry">
            <mxPoint x="754" y="905" as="sourcePoint" />
            <mxPoint x="754" y="975" as="targetPoint" />
          </mxGeometry>
        </mxCell>
        <mxCell id="_HKDWuqcOFDPoWPhOU8n-63" value="&amp;lt;&amp;lt;include&amp;gt;&amp;gt;" style="html=1;verticalAlign=bottom;endArrow=open;dashed=1;endSize=8;curved=0;rounded=0;exitX=1;exitY=0.5;exitDx=0;exitDy=0;entryX=0;entryY=0.5;entryDx=0;entryDy=0;labelBackgroundColor=none;fontColor=default;" edge="1" parent="1" source="_HKDWuqcOFDPoWPhOU8n-58" target="_HKDWuqcOFDPoWPhOU8n-59">
          <mxGeometry relative="1" as="geometry">
            <mxPoint x="1089" y="975" as="sourcePoint" />
            <mxPoint x="1141" y="1025" as="targetPoint" />
          </mxGeometry>
        </mxCell>
        <mxCell id="_HKDWuqcOFDPoWPhOU8n-64" value="&amp;lt;&amp;lt;include&amp;gt;&amp;gt;" style="html=1;verticalAlign=bottom;endArrow=open;dashed=1;endSize=8;curved=0;rounded=0;exitX=1;exitY=0;exitDx=0;exitDy=0;entryX=0;entryY=0.5;entryDx=0;entryDy=0;labelBackgroundColor=none;fontColor=default;" edge="1" parent="1" source="_HKDWuqcOFDPoWPhOU8n-58" target="_HKDWuqcOFDPoWPhOU8n-57">
          <mxGeometry relative="1" as="geometry">
            <mxPoint x="1099" y="985" as="sourcePoint" />
            <mxPoint x="1151" y="1035" as="targetPoint" />
          </mxGeometry>
        </mxCell>
        <mxCell id="_HKDWuqcOFDPoWPhOU8n-65" value="" style="endArrow=none;html=1;rounded=0;exitX=1;exitY=0.5;exitDx=0;exitDy=0;entryX=0.5;entryY=0.5;entryDx=0;entryDy=0;entryPerimeter=0;labelBackgroundColor=none;fontColor=default;" edge="1" parent="1" source="_HKDWuqcOFDPoWPhOU8n-38" target="_HKDWuqcOFDPoWPhOU8n-36">
          <mxGeometry width="50" height="50" relative="1" as="geometry">
            <mxPoint x="1030" y="745" as="sourcePoint" />
            <mxPoint x="1080" y="695" as="targetPoint" />
          </mxGeometry>
        </mxCell>
        <mxCell id="_HKDWuqcOFDPoWPhOU8n-66" value="" style="endArrow=none;html=1;rounded=0;exitX=0.5;exitY=0.5;exitDx=0;exitDy=0;exitPerimeter=0;entryX=1;entryY=0.5;entryDx=0;entryDy=0;labelBackgroundColor=none;fontColor=default;" edge="1" parent="1" source="_HKDWuqcOFDPoWPhOU8n-27" target="_HKDWuqcOFDPoWPhOU8n-33">
          <mxGeometry width="50" height="50" relative="1" as="geometry">
            <mxPoint x="1030" y="685" as="sourcePoint" />
            <mxPoint x="1080" y="635" as="targetPoint" />
          </mxGeometry>
        </mxCell>
        <mxCell id="_HKDWuqcOFDPoWPhOU8n-67" value="" style="endArrow=block;dashed=0;endFill=0;endSize=12;html=1;rounded=0;exitX=0.5;exitY=0.5;exitDx=0;exitDy=0;exitPerimeter=0;labelBackgroundColor=none;fontColor=default;entryX=0.467;entryY=0.783;entryDx=0;entryDy=0;entryPerimeter=0;" edge="1" parent="1" source="_HKDWuqcOFDPoWPhOU8n-9" target="_HKDWuqcOFDPoWPhOU8n-1">
          <mxGeometry width="160" relative="1" as="geometry">
            <mxPoint x="1710" y="605" as="sourcePoint" />
            <mxPoint x="865" y="325" as="targetPoint" />
            <Array as="points" />
          </mxGeometry>
        </mxCell>
        <mxCell id="_HKDWuqcOFDPoWPhOU8n-68" value="" style="endArrow=block;dashed=0;endFill=0;endSize=12;html=1;rounded=0;exitX=0.5;exitY=0.5;exitDx=0;exitDy=0;exitPerimeter=0;entryX=0.5;entryY=0.75;entryDx=0;entryDy=0;entryPerimeter=0;labelBackgroundColor=none;fontColor=default;" edge="1" parent="1" source="_HKDWuqcOFDPoWPhOU8n-27" target="_HKDWuqcOFDPoWPhOU8n-9">
          <mxGeometry width="160" relative="1" as="geometry">
            <mxPoint x="810" y="675" as="sourcePoint" />
            <mxPoint x="865" y="555" as="targetPoint" />
          </mxGeometry>
        </mxCell>
        <mxCell id="_HKDWuqcOFDPoWPhOU8n-69" value="" style="endArrow=block;dashed=0;endFill=0;endSize=12;html=1;rounded=0;exitX=0.5;exitY=0.5;exitDx=0;exitDy=0;exitPerimeter=0;entryX=0.5;entryY=0.767;entryDx=0;entryDy=0;entryPerimeter=0;labelBackgroundColor=none;fontColor=default;" edge="1" parent="1" source="_HKDWuqcOFDPoWPhOU8n-36" target="_HKDWuqcOFDPoWPhOU8n-27">
          <mxGeometry width="160" relative="1" as="geometry">
            <mxPoint x="810" y="785" as="sourcePoint" />
            <mxPoint x="865" y="775" as="targetPoint" />
          </mxGeometry>
        </mxCell>
        <mxCell id="_HKDWuqcOFDPoWPhOU8n-70" value="" style="endArrow=none;html=1;rounded=0;exitX=0.5;exitY=0.5;exitDx=0;exitDy=0;exitPerimeter=0;entryX=0;entryY=1;entryDx=0;entryDy=0;labelBackgroundColor=none;fontColor=default;" edge="1" parent="1" source="_HKDWuqcOFDPoWPhOU8n-1" target="_HKDWuqcOFDPoWPhOU8n-5">
          <mxGeometry width="50" height="50" relative="1" as="geometry">
            <mxPoint x="1050" y="405" as="sourcePoint" />
            <mxPoint x="1100" y="355" as="targetPoint" />
          </mxGeometry>
        </mxCell>
        <mxCell id="_HKDWuqcOFDPoWPhOU8n-71" value="" style="endArrow=none;html=1;rounded=0;exitX=0.5;exitY=0.5;exitDx=0;exitDy=0;exitPerimeter=0;entryX=0;entryY=0.5;entryDx=0;entryDy=0;labelBackgroundColor=none;fontColor=default;" edge="1" parent="1" source="_HKDWuqcOFDPoWPhOU8n-1" target="_HKDWuqcOFDPoWPhOU8n-8">
          <mxGeometry width="50" height="50" relative="1" as="geometry">
            <mxPoint x="1050" y="405" as="sourcePoint" />
            <mxPoint x="1100" y="355" as="targetPoint" />
          </mxGeometry>
        </mxCell>
        <mxCell id="_HKDWuqcOFDPoWPhOU8n-72" value="" style="endArrow=none;html=1;rounded=0;exitX=0.5;exitY=0;exitDx=0;exitDy=0;entryX=0.5;entryY=0.5;entryDx=0;entryDy=0;entryPerimeter=0;labelBackgroundColor=none;fontColor=default;" edge="1" parent="1" source="_HKDWuqcOFDPoWPhOU8n-3" target="_HKDWuqcOFDPoWPhOU8n-1">
          <mxGeometry width="50" height="50" relative="1" as="geometry">
            <mxPoint x="760" y="405" as="sourcePoint" />
            <mxPoint x="810" y="355" as="targetPoint" />
          </mxGeometry>
        </mxCell>
        <mxCell id="_HKDWuqcOFDPoWPhOU8n-73" value="" style="endArrow=none;html=1;rounded=0;exitX=1;exitY=0.5;exitDx=0;exitDy=0;entryX=0.5;entryY=0.5;entryDx=0;entryDy=0;entryPerimeter=0;labelBackgroundColor=none;fontColor=default;" edge="1" parent="1" source="_HKDWuqcOFDPoWPhOU8n-2" target="_HKDWuqcOFDPoWPhOU8n-1">
          <mxGeometry width="50" height="50" relative="1" as="geometry">
            <mxPoint x="760" y="405" as="sourcePoint" />
            <mxPoint x="860" y="295" as="targetPoint" />
          </mxGeometry>
        </mxCell>
        <mxCell id="_HKDWuqcOFDPoWPhOU8n-74" value="" style="endArrow=none;html=1;rounded=0;exitX=0;exitY=0.5;exitDx=0;exitDy=0;entryX=0.5;entryY=0.5;entryDx=0;entryDy=0;entryPerimeter=0;labelBackgroundColor=none;fontColor=default;" edge="1" parent="1" source="_HKDWuqcOFDPoWPhOU8n-46" target="_HKDWuqcOFDPoWPhOU8n-27">
          <mxGeometry width="50" height="50" relative="1" as="geometry">
            <mxPoint x="760" y="805" as="sourcePoint" />
            <mxPoint x="810" y="755" as="targetPoint" />
          </mxGeometry>
        </mxCell>
        <mxCell id="_HKDWuqcOFDPoWPhOU8n-75" value="" style="endArrow=none;html=1;rounded=0;exitX=0;exitY=0.5;exitDx=0;exitDy=0;entryX=0.5;entryY=0.5;entryDx=0;entryDy=0;entryPerimeter=0;labelBackgroundColor=none;fontColor=default;" edge="1" parent="1" source="_HKDWuqcOFDPoWPhOU8n-28" target="_HKDWuqcOFDPoWPhOU8n-27">
          <mxGeometry width="50" height="50" relative="1" as="geometry">
            <mxPoint x="760" y="805" as="sourcePoint" />
            <mxPoint x="810" y="755" as="targetPoint" />
          </mxGeometry>
        </mxCell>
        <mxCell id="_HKDWuqcOFDPoWPhOU8n-76" value="" style="endArrow=none;html=1;rounded=0;entryX=0;entryY=1;entryDx=0;entryDy=0;exitX=0.5;exitY=0.5;exitDx=0;exitDy=0;exitPerimeter=0;labelBackgroundColor=none;fontColor=default;" edge="1" parent="1" source="_HKDWuqcOFDPoWPhOU8n-36" target="_HKDWuqcOFDPoWPhOU8n-37">
          <mxGeometry width="50" height="50" relative="1" as="geometry">
            <mxPoint x="760" y="1005" as="sourcePoint" />
            <mxPoint x="810" y="955" as="targetPoint" />
          </mxGeometry>
        </mxCell>
        <mxCell id="_HKDWuqcOFDPoWPhOU8n-77" value="" style="endArrow=none;html=1;rounded=0;exitX=0.5;exitY=0.5;exitDx=0;exitDy=0;exitPerimeter=0;entryX=0.5;entryY=0;entryDx=0;entryDy=0;labelBackgroundColor=none;fontColor=default;" edge="1" parent="1" source="_HKDWuqcOFDPoWPhOU8n-36" target="_HKDWuqcOFDPoWPhOU8n-58">
          <mxGeometry width="50" height="50" relative="1" as="geometry">
            <mxPoint x="760" y="1005" as="sourcePoint" />
            <mxPoint x="810" y="955" as="targetPoint" />
          </mxGeometry>
        </mxCell>
        <mxCell id="_HKDWuqcOFDPoWPhOU8n-78" value="" style="endArrow=none;html=1;rounded=0;entryX=0.5;entryY=1;entryDx=0;entryDy=0;exitX=0.5;exitY=0.5;exitDx=0;exitDy=0;exitPerimeter=0;labelBackgroundColor=none;fontColor=default;" edge="1" parent="1" source="_HKDWuqcOFDPoWPhOU8n-9" target="_HKDWuqcOFDPoWPhOU8n-22">
          <mxGeometry width="50" height="50" relative="1" as="geometry">
            <mxPoint x="760" y="505" as="sourcePoint" />
            <mxPoint x="810" y="455" as="targetPoint" />
          </mxGeometry>
        </mxCell>
        <mxCell id="_HKDWuqcOFDPoWPhOU8n-79" value="" style="endArrow=none;html=1;rounded=0;entryX=0;entryY=0.5;entryDx=0;entryDy=0;exitX=0.5;exitY=0.5;exitDx=0;exitDy=0;exitPerimeter=0;labelBackgroundColor=none;fontColor=default;" edge="1" parent="1" source="_HKDWuqcOFDPoWPhOU8n-9" target="_HKDWuqcOFDPoWPhOU8n-26">
          <mxGeometry width="50" height="50" relative="1" as="geometry">
            <mxPoint x="760" y="505" as="sourcePoint" />
            <mxPoint x="810" y="455" as="targetPoint" />
          </mxGeometry>
        </mxCell>
        <mxCell id="_HKDWuqcOFDPoWPhOU8n-80" value="" style="endArrow=none;html=1;rounded=0;exitX=0.5;exitY=0.5;exitDx=0;exitDy=0;exitPerimeter=0;entryX=1;entryY=1;entryDx=0;entryDy=0;" edge="1" parent="1" source="_HKDWuqcOFDPoWPhOU8n-9" target="_HKDWuqcOFDPoWPhOU8n-55">
          <mxGeometry width="50" height="50" relative="1" as="geometry">
            <mxPoint x="910" y="555" as="sourcePoint" />
            <mxPoint x="960" y="505" as="targetPoint" />
            <Array as="points">
              <mxPoint x="770" y="605" />
            </Array>
          </mxGeometry>
        </mxCell>
      </root>
    </mxGraphModel>
  </diagram>
</mxfile>
